<mxfile host="Electron" modified="2023-09-07T11:49:56.719Z" agent="Mozilla/5.0 (Windows NT 10.0; Win64; x64) AppleWebKit/537.36 (KHTML, like Gecko) draw.io/21.6.8 Chrome/114.0.5735.289 Electron/25.5.0 Safari/537.36" etag="1o7Kd0q9_fVwNU0hysFo" version="21.6.8" type="device">
  <diagram name="Page-1" id="AkNICejvN4IFM6R9j2Gx">
    <mxGraphModel dx="2625" dy="1553" grid="1" gridSize="10" guides="1" tooltips="1" connect="1" arrows="1" fold="1" page="1" pageScale="1" pageWidth="1600" pageHeight="900" math="0" shadow="0">
      <root>
        <mxCell id="0" />
        <mxCell id="1" parent="0" />
        <mxCell id="mZvHF4s2OpnrcEPm8MlV-1" value="User" style="shape=umlActor;verticalLabelPosition=bottom;verticalAlign=top;html=1;outlineConnect=0;" vertex="1" parent="1">
          <mxGeometry x="80" y="40" width="30" height="60" as="geometry" />
        </mxCell>
        <mxCell id="mZvHF4s2OpnrcEPm8MlV-2" value="Login System" style="rounded=0;whiteSpace=wrap;html=1;" vertex="1" parent="1">
          <mxGeometry x="510" y="40" width="120" height="60" as="geometry" />
        </mxCell>
        <mxCell id="mZvHF4s2OpnrcEPm8MlV-4" value="Database" style="rounded=0;whiteSpace=wrap;html=1;" vertex="1" parent="1">
          <mxGeometry x="980" y="40" width="120" height="60" as="geometry" />
        </mxCell>
        <mxCell id="mZvHF4s2OpnrcEPm8MlV-6" value="" style="endArrow=none;dashed=1;html=1;rounded=0;edgeStyle=orthogonalEdgeStyle;" edge="1" parent="1" target="mZvHF4s2OpnrcEPm8MlV-1">
          <mxGeometry width="50" height="50" relative="1" as="geometry">
            <mxPoint x="95" y="900" as="sourcePoint" />
            <mxPoint x="160" y="200" as="targetPoint" />
            <Array as="points">
              <mxPoint x="95" y="870" />
            </Array>
          </mxGeometry>
        </mxCell>
        <mxCell id="mZvHF4s2OpnrcEPm8MlV-7" value="" style="endArrow=none;dashed=1;html=1;rounded=0;edgeStyle=orthogonalEdgeStyle;" edge="1" parent="1" source="mZvHF4s2OpnrcEPm8MlV-26">
          <mxGeometry width="50" height="50" relative="1" as="geometry">
            <mxPoint x="569.1700000000001" y="900" as="sourcePoint" />
            <mxPoint x="569.1700000000001" y="100" as="targetPoint" />
            <Array as="points" />
          </mxGeometry>
        </mxCell>
        <mxCell id="mZvHF4s2OpnrcEPm8MlV-8" value="" style="endArrow=none;dashed=1;html=1;rounded=0;edgeStyle=orthogonalEdgeStyle;" edge="1" parent="1" source="mZvHF4s2OpnrcEPm8MlV-20">
          <mxGeometry width="50" height="50" relative="1" as="geometry">
            <mxPoint x="1039.17" y="900" as="sourcePoint" />
            <mxPoint x="1039.17" y="100" as="targetPoint" />
            <Array as="points" />
          </mxGeometry>
        </mxCell>
        <mxCell id="mZvHF4s2OpnrcEPm8MlV-9" value="" style="endArrow=classic;html=1;rounded=0;edgeStyle=orthogonalEdgeStyle;endSize=6;startSize=6;sourcePerimeterSpacing=0;" edge="1" parent="1">
          <mxGeometry width="50" height="50" relative="1" as="geometry">
            <mxPoint x="95" y="170" as="sourcePoint" />
            <mxPoint x="570" y="170" as="targetPoint" />
          </mxGeometry>
        </mxCell>
        <mxCell id="mZvHF4s2OpnrcEPm8MlV-10" value="Initiate Login" style="text;html=1;strokeColor=none;fillColor=none;align=center;verticalAlign=middle;whiteSpace=wrap;rounded=0;" vertex="1" parent="1">
          <mxGeometry x="270" y="140" width="60" height="30" as="geometry" />
        </mxCell>
        <mxCell id="mZvHF4s2OpnrcEPm8MlV-12" style="edgeStyle=orthogonalEdgeStyle;rounded=0;orthogonalLoop=1;jettySize=auto;html=1;exitX=1;exitY=0.75;exitDx=0;exitDy=0;" edge="1" parent="1" source="mZvHF4s2OpnrcEPm8MlV-11">
          <mxGeometry relative="1" as="geometry">
            <mxPoint x="570" y="297.17647058823536" as="targetPoint" />
          </mxGeometry>
        </mxCell>
        <mxCell id="mZvHF4s2OpnrcEPm8MlV-14" style="edgeStyle=orthogonalEdgeStyle;rounded=0;orthogonalLoop=1;jettySize=auto;html=1;exitX=1;exitY=0.25;exitDx=0;exitDy=0;entryX=1;entryY=0.5;entryDx=0;entryDy=0;" edge="1" parent="1" source="mZvHF4s2OpnrcEPm8MlV-11" target="mZvHF4s2OpnrcEPm8MlV-11">
          <mxGeometry relative="1" as="geometry">
            <mxPoint x="170" y="232.47058823529414" as="targetPoint" />
            <Array as="points">
              <mxPoint x="150" y="232" />
              <mxPoint x="150" y="265" />
            </Array>
          </mxGeometry>
        </mxCell>
        <mxCell id="mZvHF4s2OpnrcEPm8MlV-11" value="" style="rounded=0;whiteSpace=wrap;html=1;" vertex="1" parent="1">
          <mxGeometry x="80" y="200" width="40" height="130" as="geometry" />
        </mxCell>
        <mxCell id="mZvHF4s2OpnrcEPm8MlV-13" value="Submit Credentials" style="text;html=1;strokeColor=none;fillColor=none;align=center;verticalAlign=middle;whiteSpace=wrap;rounded=0;" vertex="1" parent="1">
          <mxGeometry x="280" y="260" width="60" height="30" as="geometry" />
        </mxCell>
        <mxCell id="mZvHF4s2OpnrcEPm8MlV-15" value="Enter credentials" style="text;html=1;strokeColor=none;fillColor=none;align=center;verticalAlign=middle;whiteSpace=wrap;rounded=0;" vertex="1" parent="1">
          <mxGeometry x="150" y="230" width="60" height="30" as="geometry" />
        </mxCell>
        <mxCell id="mZvHF4s2OpnrcEPm8MlV-17" style="edgeStyle=orthogonalEdgeStyle;rounded=0;orthogonalLoop=1;jettySize=auto;html=1;exitX=1;exitY=0.25;exitDx=0;exitDy=0;entryX=1;entryY=0.5;entryDx=0;entryDy=0;" edge="1" parent="1" source="mZvHF4s2OpnrcEPm8MlV-16" target="mZvHF4s2OpnrcEPm8MlV-16">
          <mxGeometry relative="1" as="geometry">
            <mxPoint x="600" y="380" as="targetPoint" />
            <Array as="points">
              <mxPoint x="580" y="338" />
              <mxPoint x="610" y="338" />
              <mxPoint x="610" y="370" />
            </Array>
          </mxGeometry>
        </mxCell>
        <mxCell id="mZvHF4s2OpnrcEPm8MlV-22" style="edgeStyle=orthogonalEdgeStyle;rounded=0;orthogonalLoop=1;jettySize=auto;html=1;exitX=1;exitY=0.75;exitDx=0;exitDy=0;entryX=0.039;entryY=0.333;entryDx=0;entryDy=0;entryPerimeter=0;" edge="1" parent="1" source="mZvHF4s2OpnrcEPm8MlV-16" target="mZvHF4s2OpnrcEPm8MlV-20">
          <mxGeometry relative="1" as="geometry">
            <Array as="points">
              <mxPoint x="1020" y="395" />
              <mxPoint x="1020" y="393" />
            </Array>
          </mxGeometry>
        </mxCell>
        <mxCell id="mZvHF4s2OpnrcEPm8MlV-16" value="" style="rounded=0;whiteSpace=wrap;html=1;" vertex="1" parent="1">
          <mxGeometry x="560" y="320" width="20" height="100" as="geometry" />
        </mxCell>
        <mxCell id="mZvHF4s2OpnrcEPm8MlV-18" value="Process and validate credentials&amp;nbsp;" style="text;html=1;strokeColor=none;fillColor=none;align=center;verticalAlign=middle;whiteSpace=wrap;rounded=0;" vertex="1" parent="1">
          <mxGeometry x="620" y="340" width="110" height="30" as="geometry" />
        </mxCell>
        <mxCell id="mZvHF4s2OpnrcEPm8MlV-21" value="" style="endArrow=none;dashed=1;html=1;rounded=0;edgeStyle=orthogonalEdgeStyle;" edge="1" parent="1" target="mZvHF4s2OpnrcEPm8MlV-20">
          <mxGeometry width="50" height="50" relative="1" as="geometry">
            <mxPoint x="1039.17" y="900" as="sourcePoint" />
            <mxPoint x="1039.17" y="100" as="targetPoint" />
            <Array as="points">
              <mxPoint x="1039.17" y="870" />
            </Array>
          </mxGeometry>
        </mxCell>
        <mxCell id="mZvHF4s2OpnrcEPm8MlV-28" style="edgeStyle=orthogonalEdgeStyle;rounded=0;orthogonalLoop=1;jettySize=auto;html=1;exitX=0;exitY=0.75;exitDx=0;exitDy=0;entryX=1.05;entryY=0.357;entryDx=0;entryDy=0;entryPerimeter=0;dashed=1;" edge="1" parent="1" source="mZvHF4s2OpnrcEPm8MlV-20" target="mZvHF4s2OpnrcEPm8MlV-26">
          <mxGeometry relative="1" as="geometry" />
        </mxCell>
        <mxCell id="mZvHF4s2OpnrcEPm8MlV-20" value="" style="rounded=0;whiteSpace=wrap;html=1;" vertex="1" parent="1">
          <mxGeometry x="1025" y="345" width="30" height="145" as="geometry" />
        </mxCell>
        <mxCell id="mZvHF4s2OpnrcEPm8MlV-23" value="Check Credentials&amp;nbsp;" style="text;html=1;strokeColor=none;fillColor=none;align=center;verticalAlign=middle;whiteSpace=wrap;rounded=0;" vertex="1" parent="1">
          <mxGeometry x="770" y="370" width="110" height="30" as="geometry" />
        </mxCell>
        <mxCell id="mZvHF4s2OpnrcEPm8MlV-24" style="edgeStyle=orthogonalEdgeStyle;rounded=0;orthogonalLoop=1;jettySize=auto;html=1;exitX=1;exitY=0.25;exitDx=0;exitDy=0;entryX=1;entryY=0.75;entryDx=0;entryDy=0;" edge="1" parent="1" source="mZvHF4s2OpnrcEPm8MlV-20" target="mZvHF4s2OpnrcEPm8MlV-20">
          <mxGeometry relative="1" as="geometry" />
        </mxCell>
        <mxCell id="mZvHF4s2OpnrcEPm8MlV-25" value="Checking Credentials&amp;nbsp;" style="text;html=1;strokeColor=none;fillColor=none;align=center;verticalAlign=middle;whiteSpace=wrap;rounded=0;" vertex="1" parent="1">
          <mxGeometry x="1080" y="380" width="110" height="30" as="geometry" />
        </mxCell>
        <mxCell id="mZvHF4s2OpnrcEPm8MlV-27" value="" style="endArrow=none;dashed=1;html=1;rounded=0;edgeStyle=orthogonalEdgeStyle;" edge="1" parent="1" target="mZvHF4s2OpnrcEPm8MlV-26">
          <mxGeometry width="50" height="50" relative="1" as="geometry">
            <mxPoint x="569.1700000000001" y="900" as="sourcePoint" />
            <mxPoint x="569.1700000000001" y="100" as="targetPoint" />
            <Array as="points">
              <mxPoint x="569.1700000000001" y="870" />
            </Array>
          </mxGeometry>
        </mxCell>
        <mxCell id="mZvHF4s2OpnrcEPm8MlV-26" value="" style="rounded=0;whiteSpace=wrap;html=1;" vertex="1" parent="1">
          <mxGeometry x="560" y="440" width="20" height="40" as="geometry" />
        </mxCell>
        <mxCell id="mZvHF4s2OpnrcEPm8MlV-29" value="Result:Success/Failure" style="text;html=1;strokeColor=none;fillColor=none;align=center;verticalAlign=middle;whiteSpace=wrap;rounded=0;" vertex="1" parent="1">
          <mxGeometry x="760" y="424" width="110" height="30" as="geometry" />
        </mxCell>
        <mxCell id="mZvHF4s2OpnrcEPm8MlV-31" value="alt" style="shape=umlFrame;whiteSpace=wrap;html=1;pointerEvents=0;recursiveResize=0;container=1;collapsible=0;width=160;" vertex="1" parent="1">
          <mxGeometry x="50" y="500" width="540" height="360" as="geometry" />
        </mxCell>
        <mxCell id="mZvHF4s2OpnrcEPm8MlV-37" value="[Login Success]" style="text;html=1;strokeColor=none;fillColor=none;align=center;verticalAlign=middle;whiteSpace=wrap;rounded=0;" vertex="1" parent="mZvHF4s2OpnrcEPm8MlV-31">
          <mxGeometry x="50" y="40" width="100" height="30" as="geometry" />
        </mxCell>
        <mxCell id="mZvHF4s2OpnrcEPm8MlV-38" value="[Login Fail]" style="text;html=1;strokeColor=none;fillColor=none;align=center;verticalAlign=middle;whiteSpace=wrap;rounded=0;" vertex="1" parent="mZvHF4s2OpnrcEPm8MlV-31">
          <mxGeometry x="50" y="165" width="70" height="30" as="geometry" />
        </mxCell>
        <mxCell id="mZvHF4s2OpnrcEPm8MlV-33" value="" style="endArrow=classic;html=1;rounded=0;edgeStyle=orthogonalEdgeStyle;" edge="1" parent="1">
          <mxGeometry width="50" height="50" relative="1" as="geometry">
            <mxPoint x="570" y="600" as="sourcePoint" />
            <mxPoint x="94" y="600" as="targetPoint" />
          </mxGeometry>
        </mxCell>
        <mxCell id="mZvHF4s2OpnrcEPm8MlV-34" value="" style="endArrow=classic;html=1;rounded=0;edgeStyle=orthogonalEdgeStyle;" edge="1" parent="1">
          <mxGeometry width="50" height="50" relative="1" as="geometry">
            <mxPoint x="569" y="750" as="sourcePoint" />
            <mxPoint x="93" y="750" as="targetPoint" />
          </mxGeometry>
        </mxCell>
        <mxCell id="mZvHF4s2OpnrcEPm8MlV-35" value="User Logged In" style="text;html=1;strokeColor=none;fillColor=none;align=center;verticalAlign=middle;whiteSpace=wrap;rounded=0;" vertex="1" parent="1">
          <mxGeometry x="255" y="570" width="110" height="30" as="geometry" />
        </mxCell>
        <mxCell id="mZvHF4s2OpnrcEPm8MlV-36" value="Login Failed" style="text;html=1;strokeColor=none;fillColor=none;align=center;verticalAlign=middle;whiteSpace=wrap;rounded=0;" vertex="1" parent="1">
          <mxGeometry x="255" y="723" width="110" height="30" as="geometry" />
        </mxCell>
        <mxCell id="mZvHF4s2OpnrcEPm8MlV-39" value="" style="endArrow=none;html=1;rounded=0;edgeStyle=orthogonalEdgeStyle;" edge="1" parent="1">
          <mxGeometry width="50" height="50" relative="1" as="geometry">
            <mxPoint x="90" y="900" as="sourcePoint" />
            <mxPoint x="1040" y="900" as="targetPoint" />
          </mxGeometry>
        </mxCell>
      </root>
    </mxGraphModel>
  </diagram>
</mxfile>
